<mxfile host="app.diagrams.net" modified="2023-04-29T12:34:02.105Z" agent="Mozilla/5.0 (Windows NT 10.0; Win64; x64) AppleWebKit/537.36 (KHTML, like Gecko) Chrome/112.0.0.0 Safari/537.36" etag="mqQ639zccsSbJvyL7njm" version="21.2.3" type="device">
  <diagram id="C5RBs43oDa-KdzZeNtuy" name="Page-1">
    <mxGraphModel dx="522" dy="637" grid="1" gridSize="10" guides="1" tooltips="1" connect="1" arrows="1" fold="1" page="1" pageScale="1" pageWidth="827" pageHeight="1169" math="0" shadow="0">
      <root>
        <mxCell id="WIyWlLk6GJQsqaUBKTNV-0" />
        <mxCell id="WIyWlLk6GJQsqaUBKTNV-1" parent="WIyWlLk6GJQsqaUBKTNV-0" />
        <mxCell id="JWl9mlSEb8S9jE6WVAzB-2" value="" style="edgeStyle=none;curved=1;rounded=0;orthogonalLoop=1;jettySize=auto;html=1;fontSize=12;startSize=8;endSize=8;" edge="1" parent="WIyWlLk6GJQsqaUBKTNV-1" source="JWl9mlSEb8S9jE6WVAzB-0" target="JWl9mlSEb8S9jE6WVAzB-1">
          <mxGeometry relative="1" as="geometry" />
        </mxCell>
        <mxCell id="JWl9mlSEb8S9jE6WVAzB-0" value="main" style="ellipse;whiteSpace=wrap;html=1;fontSize=16;" vertex="1" parent="WIyWlLk6GJQsqaUBKTNV-1">
          <mxGeometry x="160" y="30" width="120" height="50" as="geometry" />
        </mxCell>
        <mxCell id="JWl9mlSEb8S9jE6WVAzB-4" value="" style="edgeStyle=none;curved=1;rounded=0;orthogonalLoop=1;jettySize=auto;html=1;fontSize=12;startSize=8;endSize=8;" edge="1" parent="WIyWlLk6GJQsqaUBKTNV-1" source="JWl9mlSEb8S9jE6WVAzB-1" target="JWl9mlSEb8S9jE6WVAzB-3">
          <mxGeometry relative="1" as="geometry" />
        </mxCell>
        <mxCell id="JWl9mlSEb8S9jE6WVAzB-1" value="rufe welcomeUser auf" style="rounded=1;whiteSpace=wrap;html=1;fontSize=16;" vertex="1" parent="WIyWlLk6GJQsqaUBKTNV-1">
          <mxGeometry x="160" y="130" width="120" height="50" as="geometry" />
        </mxCell>
        <mxCell id="JWl9mlSEb8S9jE6WVAzB-6" value="" style="edgeStyle=none;curved=1;rounded=0;orthogonalLoop=1;jettySize=auto;html=1;fontSize=12;startSize=8;endSize=8;" edge="1" parent="WIyWlLk6GJQsqaUBKTNV-1" source="JWl9mlSEb8S9jE6WVAzB-3" target="JWl9mlSEb8S9jE6WVAzB-5">
          <mxGeometry relative="1" as="geometry" />
        </mxCell>
        <mxCell id="JWl9mlSEb8S9jE6WVAzB-3" value="setze gameMode auf die Rückgabe von gameModeSelection" style="rounded=1;whiteSpace=wrap;html=1;fontSize=16;" vertex="1" parent="WIyWlLk6GJQsqaUBKTNV-1">
          <mxGeometry x="140" y="220" width="160" height="70" as="geometry" />
        </mxCell>
        <mxCell id="JWl9mlSEb8S9jE6WVAzB-8" value="" style="edgeStyle=none;curved=1;rounded=0;orthogonalLoop=1;jettySize=auto;html=1;fontSize=12;startSize=8;endSize=8;" edge="1" parent="WIyWlLk6GJQsqaUBKTNV-1" source="JWl9mlSEb8S9jE6WVAzB-5" target="JWl9mlSEb8S9jE6WVAzB-7">
          <mxGeometry relative="1" as="geometry" />
        </mxCell>
        <mxCell id="JWl9mlSEb8S9jE6WVAzB-5" value="rufe selectStartingPlayer auf und gebe die Rückgabe an currentPlayer" style="whiteSpace=wrap;html=1;fontSize=16;rounded=1;" vertex="1" parent="WIyWlLk6GJQsqaUBKTNV-1">
          <mxGeometry x="140" y="320" width="160" height="90" as="geometry" />
        </mxCell>
        <mxCell id="JWl9mlSEb8S9jE6WVAzB-10" value="" style="edgeStyle=none;curved=1;rounded=0;orthogonalLoop=1;jettySize=auto;html=1;fontSize=12;startSize=8;endSize=8;" edge="1" parent="WIyWlLk6GJQsqaUBKTNV-1" source="JWl9mlSEb8S9jE6WVAzB-7" target="JWl9mlSEb8S9jE6WVAzB-9">
          <mxGeometry relative="1" as="geometry" />
        </mxCell>
        <mxCell id="JWl9mlSEb8S9jE6WVAzB-7" value="rufe shooting auf und warte bis eine winningID zurückgegeben wird" style="whiteSpace=wrap;html=1;fontSize=16;rounded=1;" vertex="1" parent="WIyWlLk6GJQsqaUBKTNV-1">
          <mxGeometry x="140" y="440" width="160" height="80" as="geometry" />
        </mxCell>
        <mxCell id="JWl9mlSEb8S9jE6WVAzB-9" value="gebe diese winningID an battleEnd weiter&amp;nbsp;" style="whiteSpace=wrap;html=1;fontSize=16;rounded=1;" vertex="1" parent="WIyWlLk6GJQsqaUBKTNV-1">
          <mxGeometry x="150" y="554.5" width="140" height="60" as="geometry" />
        </mxCell>
      </root>
    </mxGraphModel>
  </diagram>
</mxfile>
